# AST/ASF file generated using VICON BodyLanguage
# -----------------------------------------------
:version 1.10
:name VICON
:units
  mass 1.0
  length 0.45
  angle deg
:documentation
   .ast/.asf automatically generated from VICON data using
   VICON BodyBuilder and BodyLanguage model FoxedUp or BRILLIANT.MOD
:root
   order TX TY TZ RX RY RZ
   axis XYZ
   position 0 0 0  
   orientation 0 0 0 
:bonedata
  begin
     id 1 
     name lhipjoint
     direction 0.624716 -0.669793 0.401383 
     length 2.38238 
     axis 0 0 0  XYZ
  end
  begin
     id 2 
     name lfemur
     direction 0.34202 -0.939693 0  
     length 6.4574  
     axis 0 0 20  XYZ
    dof rx ry rz
    limits (-160.0 20.0)
           (-70.0 70.0)
           (-60.0 70.0)
  end
  begin
     id 3 
     name ltibia
     direction 0.34202 -0.939693 0   
     length 7.68739   
     axis 0 0 20   XYZ
    dof rx
    limits (-10.0 170.0)
  end
  begin
     id 4 
     name lfoot
     direction 0.0681309 -0.187188 0.979959   
     length 2.46615   
     axis -90 7.62852e-016 20   XYZ
    dof rx rz
    limits (-45.0 90.0)
           (-70.0 20.0)
  end
  begin
     id 5 
     name ltoes
     direction 1.53566e-011 -4.21819e-011 1   
     length 1.2376   
     axis -90 7.62852e-016 20   XYZ
    dof rx
    limits (-90.0 20.0)
  end
  begin
     id 6 
     name rhipjoint
     direction -0.644473 -0.655875 0.393043   
     length 2.43293  
     axis 0 0 0  XYZ 
  end
  begin
     id 7 
     name rfemur
     direction -0.34202 -0.939693 0   
     length 6.7025   
     axis 0 0 -20   XYZ
    dof rx ry rz
    limits (-160.0 20.0)
           (-70.0 70.0)
           (-70.0 60.0)
  end
  begin
     id 8 
     name rtibia
     direction -0.34202 -0.939693 0   
     length 7.80547   
     axis 0 0 -20   XYZ
    dof rx
    limits (-10.0 170.0)
 end
 begin
     id 9 
     name rfoot
     direction -0.0756734 -0.207911 0.975216   
     length 2.40315  
     axis -90 -7.62852e-016 -20   XYZ
    dof rx rz
    limits (-45.0 90.0)
           (-20.0 70.0)
  end
  begin
     id 10 
     name rtoes
     direction -1.5353e-011 -4.21879e-011 1   
     length 1.20477   
     axis -90 -7.62852e-016 -20   XYZ
    dof rx
    limits (-90.0 20.0)
  end
  begin
     id 11 
     name lowerback
     direction 0.0160353 0.987463 -0.157037   
     length 2.18572   
     axis 0 0 0   XYZ
    dof rx ry rz
    limits (-20.0 45.0)
           (-30.0 30.0)
           (-30.0 30.0)
  end
  begin
     id 12 
     name upperback
     direction -0.00499661 0.999756 0.0215076   
     length 2.18016   
     axis 0 0 0   XYZ
    dof rx ry rz
    limits (-20.0 45.0)
           (-30.0 30.0)
           (-30.0 30.0)
  end
  begin
     id 13 
     name thorax
     direction -0.00921346 0.995333 0.0960619   
     length 2.24923   
     axis 0 0 0   XYZ
    dof rx ry rz
    limits (-20.0 45.0)
           (-30.0 30.0)
           (-30.0 30.0)
  end
  begin
     id 14 
     name lowerneck
     direction 0.0274184 0.991181 0.12965   
     length 1.70911   
     axis 0 0 0   XYZ
    dof rx ry rz
    limits (-20.0 45.0)
           (-30.0 30.0)
           (-30.0 30.0)
  end
  begin
     id 15 
     name upperneck
     direction 0.0015627 0.999959 -0.00893559   
     length 1.69312   
     axis 0 0 0   XYZ
    dof rx ry rz
    limits (-20.0 45.0)
           (-30.0 30.0)
           (-30.0 30.0)
  end
  begin
     id 16
     name head
     direction -0.00230242 0.999856 -0.0168327  
     length 1.80241  
     axis 0 0 0   XYZ
    dof rx ry rz
    limits (-20.0 45.0)
           (-30.0 30.0)
           (-30.0 30.0)
  end
  begin
     id 17 
     name lclavicle
     direction 0.955523 0.290741 -0.0494489  
     length 3.84275  
     axis 0 0 0   XYZ
    dof ry rz
    limits (-20.0 10.0)
           (0.0 20.0)
  end
  begin
     id 18 
     name lhumerus
     direction 1 -4.48967e-011 -3.18382e-028   
     length 5.17714   
     axis 180 -30 -90   XYZ
    dof rx ry rz
    limits (-60.0 90.0)
           (-90.0 90.0)
           (-90.0 90.0)
  end
  begin
     id 19
     name lradius
     direction 1 -4.48968e-011 -2.22911e-027   
     length 3.43679   
     axis 180 -30 -90   XYZ
    dof rx
    limits (-10.0 170.0)
  end
  begin
     id 20
     name lwrist
     direction 1 -4.48951e-011 -6.32245e-027   
     length 1.7184   
     axis 3.57107e-015 90 90   XYZ
    dof ry
    limits (-180.0 0.0)
 end
  begin
     id 21 
     name lhand
     direction 1 -4.48924e-011 -1.26431e-026   
     length 0.573117   
     axis 8.06912e-015 90 90   XYZ
    dof rx rz
    limits (-90.0 90.0)
           (-45.0 45.0)
  end
  begin
     id 22 
     name lfingers
     direction 1 -4.49001e-011 -2.52965e-026   
     length 0.462062   
     axis 1.61381e-014 90 90   XYZ
    dof rx
    limits (0.0 90.0)
  end
  begin
     id 23
     name lthumb
     direction 0.707107 -6.35008e-011 0.707107   
     length 0.663431   
     axis -90 45 -1.62303e-014   XYZ
    dof rx rz
    limits (-45.0 45.0)
           (-45.0 45.0)
  end
  begin
     id 24 
     name rclavicle
     direction -0.963917 0.256881 -0.0698287   
     length 3.73057  
     axis 0 0 0   XYZ 
    dof ry rz
    limits (-10.0 20.0)
           (-20.0 0.0)
  end
  begin
     id 25 
     name rhumerus
     direction -1 -4.48962e-011 -2.73982e-027  
     length 5.23908   
     axis 180 30 90   XYZ
    dof rx ry rz
    limits (-90.0 60.0)
           (-90.0 90.0)
           (-90.0 90.0)
  end
  begin
     id 26 
     name rradius
     direction -1 -4.48968e-011 -4.33218e-027   
     length 3.46485   
     axis 180 30 90   XYZ
    dof rx
    limits (-10.0 170.0)
  end
  begin
     id 27 
     name rwrist
     direction -1 -4.48989e-011 -6.32372e-027   
     length 1.73243   
     axis 3.57107e-015 -90 -90   XYZ
    dof ry
    limits (-180.0 0.0)
  end
  begin
     id 28
     name rhand
     direction -1 -4.48948e-011 -1.26448e-026   
     length 0.608752   
     axis 8.06912e-015 -90 -90   XYZ
    dof rx rz
    limits (-90.0 90.0)
           (-45.0 45.0)
  end
  begin
     id 29
     name rfingers
     direction -1 -4.48962e-011 -2.52913e-026   
     length 0.490792   
     axis 1.61381e-014 -90 -90   XYZ
    dof rx
    limits (0.0 90.0)
  end
  begin
     id 30
     name rthumb
     direction -0.707107 -6.34878e-011 0.707107   
     length 0.704682   
     axis -90 -45 1.62303e-014   XYZ
    dof rx rz
    limits (-45.0 45.0)
           (-45.0 45.0)
  end
:hierarchy
  begin
    root lhipjoint rhipjoint lowerback
    lhipjoint lfemur
    lfemur ltibia
    ltibia lfoot
    lfoot ltoes
    rhipjoint rfemur
    rfemur rtibia
    rtibia rfoot
    rfoot rtoes
    lowerback upperback
    upperback thorax
    thorax lowerneck lclavicle rclavicle
    lowerneck upperneck
    upperneck head
    lclavicle lhumerus
    lhumerus lradius
    lradius lwrist
    lwrist lhand lthumb
    lhand lfingers
    rclavicle rhumerus
    rhumerus rradius
    rradius rwrist
    rwrist rhand rthumb
    rhand rfingers
  end

#!OML:ASF G:\JayActor3\Patient Classification 1\Patient 1\Session 6\male.ASF
:FULLY-SPECIFIED
:DEGREES
165
root 50.9848 15.9783 18.2486 201.191 -49.3081 -182.66
lowerback 20.6187 -0.820399 -1.92744
upperback 3.25322 -1.83313 -0.0766793
thorax -7.93361 -0.964358 1.52823
lowerneck 18.3716 0.932408 0.350191
upperneck -23.1501 1.74872 2.47346
head -10.487 0.310603 0.602675
rclavicle -3.90612e-014 6.44062e-014
rhumerus -41.5755 10.5097 -88.0695
rradius 56.8038
rwrist -7.68136
rhand -21.2168 -6.08484
rfingers 7.12502
rthumb 5.16499 -36.0019
lclavicle -3.90612e-014 6.44062e-014
lhumerus -43.3773 -17.844 88.3595
lradius 59.4321
lwrist 30.4629
lhand -22.025 5.64431
lfingers 7.12502
lthumb 4.38465 35.5789
rfemur -46.3958 -1.7701 20.8318
rtibia 47.0775
rfoot -19.033 -7.93257
rtoes 5.16935
lfemur -39.7432 16.0724 -30.7389
ltibia 34.9018
lfoot -14.0864 -0.615414
ltoes -0.315582
166
root 50.9903 15.9779 18.2545 201.175 -49.2673 -182.6
lowerback 20.734 -0.815948 -1.9382
upperback 3.25925 -1.8334 -0.0618936
thorax -7.988 -0.964134 1.5538
lowerneck 18.3884 0.947003 0.359585
upperneck -23.1606 1.76466 2.44163
head -10.4937 0.320811 0.587465
rclavicle -2.18663e-014 2.26615e-014
rhumerus -41.5349 10.3661 -87.9695
rradius 56.5539
rwrist -7.60296
rhand -21.2134 -6.09428
rfingers 7.12502
rthumb 5.16826 -36.0113
lclavicle -2.18663e-014 2.26615e-014
lhumerus -43.5179 -18.09 88.4828
lradius 59.4023
lwrist 30.4437
lhand -21.9452 5.76242
lfingers 7.12502
lthumb 4.46172 35.6954
rfemur -46.462 -1.74367 20.869
rtibia 47.0653
rfoot -18.9818 -7.92359
rtoes 5.18432
lfemur -39.8568 16.0599 -30.7213
ltibia 34.9777
lfoot -14.0737 -0.541157
ltoes -0.413721
167
root 50.9953 15.9775 18.2599 201.148 -49.2233 -182.54
lowerback 20.8414 -0.810087 -1.95018
upperback 3.26813 -1.83218 -0.0487093
thorax -8.03505 -0.96339 1.57768
lowerneck 18.3951 0.959457 0.371485
upperneck -23.1627 1.77805 2.40983
head -10.4955 0.329858 0.57217
rclavicle 5.50634e-014 -1.98785e-016
rhumerus -41.49 10.2273 -87.8746
rradius 56.3087
rwrist -7.47549
rhand -21.1864 -6.06835
rfingers 7.12502
rthumb 5.1944 -35.9847
lclavicle 5.50634e-014 -1.98785e-016
lhumerus -43.6616 -18.3077 88.5993
lradius 59.39
lwrist 30.3984
lhand -21.9048 5.82614
lfingers 7.12502
lthumb 4.5007 35.7583
rfemur -46.5107 -1.71475 20.9047
rtibia 47.0491
rfoot -18.9352 -7.91611
rtoes 5.19093
lfemur -39.9549 16.0616 -30.7057
ltibia 35.0491
lfoot -14.0641 -0.468825
ltoes -0.51696
168
root 50.9997 15.977 18.2651 201.119 -49.1782 -182.487
lowerback 20.944 -0.805276 -1.96448
upperback 3.27676 -1.83292 -0.0379118
thorax -8.07971 -0.963551 1.6007
lowerneck 18.3847 0.975424 0.383818
upperneck -23.1498 1.79659 2.38003
head -10.4885 0.341403 0.556715
rclavicle -1.87454e-013 8.64713e-014
rhumerus -41.4518 10.1026 -87.7877
rradius 56.0826
rwrist -7.30592
rhand -21.137 -6.03248
rfingers 7.12502
rthumb 5.24205 -35.9476
lclavicle -1.87454e-013 8.64713e-014
lhumerus -43.8047 -18.492 88.706
lradius 59.3914
lwrist 30.3459
lhand -21.8827 5.89515
lfingers 7.12502
lthumb 4.52207 35.8269
rfemur -46.5476 -1.69499 20.9363
rtibia 47.0314
rfoot -18.8935 -7.90407
rtoes 5.20398
lfemur -40.04 16.069 -30.6976
ltibia 35.116
lfoot -14.0579 -0.391944
ltoes -0.637659
169
root 51.0037 15.9765 18.2703 201.085 -49.1343 -182.436
lowerback 21.0396 -0.802021 -1.97268
upperback 3.28503 -1.8343 -0.0296228
thorax -8.12127 -0.96421 1.6175
lowerneck 18.3731 0.990781 0.395433
upperneck -23.1358 1.81507 2.3544
head -10.481 0.352478 0.542887
rclavicle -3.11098e-014 6.75868e-015
rhumerus -41.4214 9.98753 -87.7093
rradius 55.8726
rwrist -7.10737
rhand -21.0857 -5.98637
rfingers 7.12502
rthumb 5.2916 -35.9003
lclavicle -3.11098e-014 6.75868e-015
lhumerus -43.939 -18.6435 88.7987
lradius 59.3985
lwrist 30.3044
lhand -21.8846 5.95557
lfingers 7.12502
lthumb 4.52016 35.8873
rfemur -46.577 -1.68705 20.9692
rtibia 47.0132
rfoot -18.8538 -7.88755
rtoes 5.20342
lfemur -40.1146 16.0749 -30.6906
ltibia 35.1776
lfoot -14.0587 -0.309415
ltoes -0.761891
170
root 51.0073 15.976 18.2758 201.055 -49.0956 -182.391
lowerback 21.1283 -0.801699 -1.97682
upperback 3.29265 -1.8384 -0.0227368
thorax -8.15986 -0.966271 1.63103
lowerneck 18.3629 1.00846 0.400953
upperneck -23.1261 1.83703 2.33696
head -10.4755 0.364494 0.532555
rclavicle -3.95581e-014 7.99114e-014
rhumerus -41.3934 9.88158 -87.6376
rradius 55.6763
rwrist -6.90131
rhand -21.0145 -5.9328
rfingers 7.12502
rthumb 5.36037 -35.845
lclavicle -3.95581e-014 7.99114e-014
lhumerus -44.0622 -18.767 88.8776
lradius 59.4152
lwrist 30.2927
lhand -21.8987 6.01938
lfingers 7.12502
lthumb 4.50654 35.9514
rfemur -46.6043 -1.69705 21.0017
rtibia 46.9957
rfoot -18.8151 -7.86285
rtoes 5.20446
lfemur -40.1822 16.072 -30.6866
ltibia 35.2332
lfoot -14.0645 -0.221956
ltoes -0.872212
171
root 51.0105 15.9754 18.2818 201.018 -49.0719 -182.348
lowerback 21.2171 -0.808721 -1.96667
upperback 3.30353 -1.84904 -0.0154978
thorax -8.19508 -0.972021 1.63855
lowerneck 18.3504 1.02579 0.404971
upperneck -23.1214 1.85812 2.3207
head -10.4714 0.375886 0.523079
rclavicle -3.71727e-014 -7.35503e-014
rhumerus -41.3633 9.78481 -87.5704
rradius 55.4926
rwrist -6.70828
rhand -20.9329 -5.89048
rfingers 7.12502
rthumb 5.43913 -35.8007
lclavicle -3.71727e-014 -7.35503e-014
lhumerus -44.1662 -18.8783 88.9445
lradius 59.4329
lwrist 30.3279
lhand -21.9014 6.10015
lfingers 7.12502
lthumb 4.504 36.0323
rfemur -46.6217 -1.73071 21.0387
rtibia 46.9787
rfoot -18.7777 -7.83454
rtoes 5.19602
lfemur -40.2342 16.0538 -30.6778
ltibia 35.2834
lfoot -14.0763 -0.131112
ltoes -0.980046
172
root 51.0139 15.9746 18.2882 200.978 -49.0571 -182.305
lowerback 21.3004 -0.817156 -1.94812
upperback 3.31496 -1.85928 -0.00723793
thorax -8.22693 -0.977838 1.64213
lowerneck 18.3469 1.03783 0.414901
upperneck -23.1275 1.87255 2.30018
head -10.4727 0.383904 0.512096
rclavicle 3.65764e-014 -1.78906e-014
rhumerus -41.3321 9.6872 -87.5059
rradius 55.317
rwrist -6.54797
rhand -20.8453 -5.84267
rfingers 7.12502
rthumb 5.52372 -35.7507
lclavicle 3.65764e-014 -1.78906e-014
lhumerus -44.2531 -18.9849 89.0016
lradius 59.4534
lwrist 30.4127
lhand -21.9075 6.17685
lfingers 7.12502
lthumb 4.4981 36.1091
rfemur -46.6398 -1.77446 21.0804
rtibia 46.9631
rfoot -18.7393 -7.80863
rtoes 5.17827
lfemur -40.2816 16.0259 -30.6636
ltibia 35.3287
lfoot -14.0935 -0.0400389
ltoes -1.05196
173
root 51.0176 15.9736 18.2949 200.938 -49.0532 -182.259
lowerback 21.3776 -0.826862 -1.92064
upperback 3.32723 -1.86872 0.00287116
thorax -8.25482 -0.983543 1.64224
lowerneck 18.3478 1.04501 0.426858
upperneck -23.1415 1.88037 2.2782
head -10.4777 0.388629 0.501245
rclavicle 1.40143e-014 7.09661e-014
rhumerus -41.3005 9.58875 -87.443
rradius 55.1539
rwrist -6.42987
rhand -20.7492 -5.80202
rfingers 7.12502
rthumb 5.61649 -35.7076
lclavicle 1.40143e-014 7.09661e-014
lhumerus -44.3199 -19.0853 89.0479
lradius 59.4768
lwrist 30.5379
lhand -21.8882 6.25414
lfingers 7.12502
lthumb 4.51669 36.186
rfemur -46.6608 -1.82407 21.125
rtibia 46.9488
rfoot -18.7004 -7.78632
rtoes 5.16665
lfemur -40.3265 15.9909 -30.6455
ltibia 35.37
lfoot -14.1168 0.0503477
ltoes -1.10436
174
root 51.0218 15.9725 18.3019 200.893 -49.069 -182.212
lowerback 21.458 -0.839952 -1.8801
upperback 3.33944 -1.87925 0.0165286
thorax -8.28471 -0.990045 1.63917
lowerneck 18.3471 1.04824 0.441151
upperneck -23.1548 1.88298 2.25516
head -10.482 0.390933 0.490361
rclavicle 3.01159e-014 6.55989e-015
rhumerus -41.2732 9.4909 -87.3828
rradius 55.0025
rwrist -6.35962
rhand -20.6682 -5.7709
rfingers 7.12502
rthumb 5.69475 -35.6744
lclavicle 3.01159e-014 6.55989e-015
lhumerus -44.3703 -19.1793 89.0867
lradius 59.5001
lwrist 30.6918
lhand -21.8542 6.32224
lfingers 7.12502
lthumb 4.54957 36.2534
rfemur -46.6792 -1.87743 21.1739
rtibia 46.9364
rfoot -18.668 -7.77858
rtoes 5.16147
lfemur -40.3653 15.9473 -30.6196
ltibia 35.4075
lfoot -14.1471 0.136279
ltoes -1.14576
175
root 51.0265 15.9711 18.3089 200.85 -49.0914 -182.162
lowerback 21.5329 -0.850851 -1.8382
upperback 3.34993 -1.88588 0.0332135
thorax -8.31362 -0.99458 1.63743
lowerneck 18.3448 1.04816 0.452594
upperneck -23.1668 1.88127 2.23693
head -10.4856 0.390949 0.482286
rclavicle -1.53064e-014 -9.93923e-016
rhumerus -41.2501 9.39659 -87.3273
rradius 54.8639
rwrist -6.33605
rhand -20.6022 -5.74363
rfingers 7.12502
rthumb 5.75838 -35.6454
lclavicle -1.53064e-014 -9.93923e-016
lhumerus -44.4038 -19.2548 89.1149
lradius 59.521
lwrist 30.8533
lhand -21.8072 6.35522
lfingers 7.12502
lthumb 4.59499 36.2854
rfemur -46.7045 -1.91876 21.222
rtibia 46.9261
rfoot -18.6396 -7.79098
rtoes 5.14393
lfemur -40.4065 15.9044 -30.5915
ltibia 35.4406
lfoot -14.1843 0.215264
ltoes -1.14622
